PathFileType	4	(X/Y/Z)	21_1_43_p0_0-507_filt_butterworth.trc
DataRate	CameraRate	NumFrames	NumMarkers	Units	OrigDataRate	OrigDataStartFrame	OrigNumFrames
56.0	56.0	5	27	m	56.0	0	507
Frame#	Time	RHip			RKnee			RAnkle			RBigToe			RSmallToe			RHeel			LHip			LKnee			LAnkle			LBigToe			LSmallToe			LHeel			Neck			Head			Nose			RShoulder			RElbow			RWrist			RThumb			RIndex			RPinky			LShoulder			LElbow			LWrist			LThumb			LIndex			LPinky			
		X1	Y1	Z1	X2	Y2	Z2	X3	Y3	Z3	X4	Y4	Z4	X5	Y5	Z5	X6	Y6	Z6	X7	Y7	Z7	X8	Y8	Z8	X9	Y9	Z9	X10	Y10	Z10	X11	Y11	Z11	X12	Y12	Z12	X13	Y13	Z13	X14	Y14	Z14	X15	Y15	Z15	X16	Y16	Z16	X17	Y17	Z17	X18	Y18	Z18	X19	Y19	Z19	X20	Y20	Z20	X21	Y21	Z21	X22	Y22	Z22	X23	Y23	Z23	X24	Y24	Z24	X25	Y25	Z25	X26	Y26	Z26	X27	Y27	Z27	
0	0.0	0.31009991128285846	0.9292623095865836	0.5824665710848119	0.30538634579438967	0.46925369371950953	0.6161520565968066	0.2785994471597895	0.013014661408417005	0.6938652538405068	0.28025990338786283	0.008904600362408345	0.47651501773196736	0.331197353227736	-0.0018991895480847051	0.5183620193231644	0.2631695787760002	-0.007047506445271898	0.7067031729286823	0.11752773294284964	0.9257640877041073	0.5888705265641888	0.096860169380213	0.4590300355410151	0.61789666551713	0.11175687681796079	0.035505960832825305	0.6361545339177276	0.11123769170674497	0.03435628969357225	0.4322914625944133	0.056286006515394386	0.01241033359522313	0.49817036095368894	0.13246499419144503	-0.016105917433497825	0.681589072649257	0.23103206216382027	1.4975706346698219	0.596835938401088	0.24959496117950128	1.7543917384881187	0.5544518266919267	0.24053216472634073	1.6090648991533612	0.5129674769051522	0.37445211774612175	1.3962724679286258	0.5750139784114864	0.3883041875763651	1.1300734271524457	0.5411078680803456	0.22788684544913929	0.9801178395137505	0.41734840033341253	0.12649295664444377	0.9325346791871083	0.4006605725179557	0.12859918928940142	0.8887422564734183	0.4368399138014349	0.15276014965981982	0.8515689161943785	0.45011814106136333	0.07525166271657611	1.405648578098763	0.5963231192375146	0.04936398618210702	1.1460083392851184	0.5254121367577091	0.12474599973381677	0.976052632167666	0.4212174177112727	0.19314261705082403	0.8991311824837382	0.38762458225599616	0.1997275219875639	0.8494003112180574	0.3961796605572595	0.18059115110824747	0.8580810014820207	0.3874460590843902	
1	0.0178571428571428	0.30915974826589226	0.9321665410712868	0.5761945334295551	0.30528672667178397	0.4693012830330743	0.6167129336050393	0.2786995637182934	0.012960039185492434	0.694209667306542	0.2802227264520319	0.008888418715839105	0.4766374739965595	0.33464369963567864	-7.719960265504394e-05	0.5162743929964156	0.2642220542359249	-0.009847840081542956	0.7106412747534818	0.11755311887118043	0.9263926599178852	0.5849317234466354	0.09691208453490642	0.46034671531804183	0.6182934271441204	0.11167144921232655	0.038623262970199315	0.63613636363375	0.11530413542847387	0.04062075166583813	0.42696990890787273	0.0563081127932961	0.012754284134554802	0.4983642944369178	0.13302091157790058	-0.016199862444110147	0.6835565155753875	0.23113395043489587	1.4961143790183915	0.5963828709409604	0.24958750860637285	1.7544045993844364	0.5544385782462263	0.24258562409179713	1.6088384154086566	0.5145655689268489	0.3740784272544226	1.3959666688540457	0.5817969893405628	0.38692708450380464	1.1298496048326503	0.5378922653263621	0.22914968737529648	0.9795032717286535	0.4189746451854973	0.13861012760690758	0.9294227612000199	0.3949226959190406	0.14697538922996378	0.8690821114376152	0.4446068242521668	0.15782258179472491	0.8439700412142486	0.4595035597571574	0.07554637487012061	1.4060793065540926	0.5956012068393552	0.05223752984083488	1.1450389759111026	0.527616811673417	0.13151937324168825	0.9731014668858862	0.42046540396069987	0.19704586225595838	0.9005730064933504	0.3901697263476491	0.20613068347345626	0.8454941011667024	0.40276297865285987	0.18786371600905336	0.848658330230665	0.3951873844097257	
2	0.0357142857142857	0.30849941982553464	0.9344685566789538	0.5708793388593881	0.30524413709696113	0.4692319358527539	0.61725181997182	0.2788481111528417	0.012919565661537367	0.6944157669370742	0.28022041068738024	0.008879286028851914	0.47675291171377243	0.3370731153850178	0.0011317007532220744	0.5148962953316173	0.2651244179472	-0.01217881398713231	0.7138633141409969	0.1174905762381427	0.926899417587547	0.5815764042619502	0.0969518792091869	0.46136239666823337	0.6186401587038876	0.11156295508897758	0.04130955265492999	0.6360799771287623	0.11748371687473007	0.0433464866196553	0.42534856801937004	0.0563142665608904	0.012989296706482759	0.4984515089664744	0.1334857586324469	-0.016221434496597187	0.6851778287842537	0.2311932822086832	1.4951063960109365	0.5961028173884005	0.24958133545707237	1.7544058350685166	0.5544325244562064	0.24388728897685893	1.608693606879373	0.5155826373279669	0.37392466509922806	1.3959599581757585	0.5862376297247567	0.3858282221092958	1.1299057776884214	0.5366694469468046	0.23075141399887245	0.9785103752259979	0.4213051053173871	0.1472574874247233	0.9274816013629518	0.39007939611596065	0.16009025377988842	0.8578010388691808	0.44853285496329476	0.1619219775043781	0.8399036576171757	0.4647190673013574	0.07561482496659082	1.406266087814808	0.5954261468481477	0.054503116117288135	1.1444422670459073	0.5292790575843058	0.1369185520508328	0.9707072463390333	0.42141958501634125	0.20059479902400146	0.9007419074667863	0.39386294301679126	0.2118077244662527	0.8423470959757294	0.40893674460820534	0.19345372530010838	0.842571652114294	0.4022313097746041	
3	0.0535714285714285	0.3080929504241651	0.9362236318526981	0.5664485721946286	0.3052544682775062	0.46905752474047346	0.6177688194476734	0.27903936183582717	0.012893639067091699	0.6944946277708811	0.2802455849580617	0.008873667401608942	0.4768547596061433	0.3386490201368353	0.0018285810952118203	0.5141107026622399	0.26588454493709857	-0.014074534367842471	0.716422266209014	0.11735103253641349	0.9272959869936921	0.578758706388311	0.09698095983733086	0.46210573006961475	0.6189396264573241	0.11143474435686591	0.04359448807480248	0.6359903561481636	0.11815532179011523	0.04333979846844263	0.42653780717614237	0.05630864636353431	0.013129437499389641	0.4984662990193309	0.1338663365803026	-0.016177951162226985	0.6864801092274392	0.23122027283027188	1.4944705639276734	0.5959584900553738	0.24957635156283184	1.7543984620439113	0.5544317571526698	0.24458278471441036	1.6086146522864266	0.5161301658166799	0.37391114662105546	1.3961731441737677	0.5887638062833865	0.38494833028596315	1.1301383048150326	0.5370624820714847	0.23255560852219295	0.977253622516169	0.4240715470698989	0.1530174546255589	0.9264045812387061	0.3861649943103612	0.16884272041391402	0.8529769930397959	0.4496016079386871	0.165202583506297	0.838578457164901	0.46657312813008023	0.07553216311801808	1.4062416443885615	0.5956124073968017	0.056242459476568786	1.1441392742975167	0.5304834649056174	0.14111523859585062	0.968792711265495	0.4236628621325895	0.20374505778782917	0.8999273994580115	0.3982870528541112	0.21672280905703134	0.8398530167259458	0.41458113574351785	0.19756547059048518	0.8392367966022745	0.4084870330856247	
4	0.0714285714285714	0.30791436452416343	0.9374870420356343	0.5628298182555942	0.30531361142100427	0.468789922258158	0.6182640357831248	0.27926758813964286	0.012882657632695929	0.6944573248467406	0.28029087812822995	0.008868027934271439	0.47693644639620897	0.3395348335522134	0.002114510998977581	0.5138005913217538	0.2665103102328935	-0.015569107429476814	0.7183711060753187	0.11714541525866988	0.9275939944169201	0.5764327672038951	0.0970007328536147	0.4626053660002119	0.6191945966653231	0.11129016692494367	0.045507727417601396	0.6358724824373532	0.11769783591923104	0.041406991125619214	0.42964799362542644	0.056295430746584905	0.01318877270165831	0.49844295907245983	0.13416944664668612	-0.01607673001226806	0.687490453856528	0.23122513764475144	1.4941307610488188	0.5959126012538462	0.24957246675488337	1.754385496814173	0.5544343681664197	0.2448177366373355	1.6085857303507358	0.5163196381011612	0.3739581871604223	1.3965270351280767	0.589803425735771	0.3842281389269312	1.130443545307756	0.5386944398302137	0.23442585414758377	0.9758474861095499	0.4270057367838499	0.15647244773708227	0.9258850823900846	0.38321381170388774	0.17413172660677928	0.8526879282211408	0.44879668518221166	0.16780864651799932	0.8392031316191649	0.46587420667944224	0.07537353943643373	1.4060386987830051	0.5959744566182269	0.057537274383778834	1.1440510592739161	0.5313146240525934	0.144281135311342	0.9672806024036589	0.42677813656383756	0.20645226898031738	0.8984189965209921	0.4030248764502974	0.22084010133687018	0.8379055844981591	0.41957632937901923	0.20040324348925645	0.8380695931639739	0.4138637522493869	
